<?xml version="1.0" encoding="iso-8859-1"?>
<!-- Generator: Adobe Illustrator 16.0.0, SVG Export Plug-In . SVG Version: 6.00 Build 0)  -->
<!DOCTYPE svg PUBLIC "-//W3C//DTD SVG 1.1//EN" "http://www.w3.org/Graphics/SVG/1.1/DTD/svg11.dtd">
<svg version="1.1" id="Capa_1" xmlns="http://www.w3.org/2000/svg" xmlns:xlink="http://www.w3.org/1999/xlink" x="0px" y="0px"
	 width="24.074px" height="24.074px" viewBox="0 0 70.074 70.074" style="enable-background:new 0 0 70.074 70.074;"
	 xml:space="preserve">
<g>
	<path d="M67.684,14.684v-4.172H2.394v4.172H0v44.88h70.074v-44.88H67.684z M4.728,14.684v-1.836h29.142v1.836v40.792H4.728V14.684z
		 M38.705,14.684v12.506l3.745-2.628l3.075,2.153l0.682,0.475v-0.809V14.679v-1.832h19.132v1.836v35.806l-5.041-5.388l-0.071-0.078
		l-0.431,0.404l-0.933-1.002c1.564-1.824,2.497-4.083,2.579-6.515c0.096-2.829-0.921-5.524-2.857-7.592
		c-1.996-2.135-4.815-3.359-7.74-3.359c-2.7,0-5.276,1.019-7.249,2.866c-4.268,3.997-4.489,10.723-0.495,14.992
		c1.996,2.131,4.815,3.354,7.735,3.354c2.306,0,4.493-0.78,6.323-2.146l0.933,0.997l-0.427,0.398l0.071,0.078l6.17,6.585
		l1.433-1.341v2.732H36.205V14.684v-1.836h2.5V14.684z M50.845,45.836c-2.312,0-4.457-0.926-6.031-2.614
		c-3.115-3.328-2.942-8.57,0.388-11.686c1.535-1.442,3.548-2.236,5.648-2.236c2.312,0,4.457,0.927,6.035,2.617
		c1.511,1.609,2.3,3.711,2.227,5.919c-0.073,2.206-1.001,4.255-2.614,5.767C54.955,45.042,52.948,45.836,50.845,45.836z
		 M7.783,42.383h22.895v2.336H7.783V42.383z M7.571,48.681h22.895v2.336H7.571V48.681z M10.395,27.615l0.598-1.862h3.469
		l0.619,1.862h1.012h1.014l-3.235-9.143h-1.108h-1.106l-3.233,9.143h0.988H10.395z M12.735,20.512l1.212,3.671h-2.427L12.735,20.512
		z M30.463,20.721H18.495v-2.335h11.969V20.721z M30.463,26.684H18.495v-2.336h11.969V26.684z M30.463,32.644H7.993v-2.336h22.471
		V32.644z M30.463,38.605H7.993V36.27h22.471V38.605z"/>
</g>
<g>
</g>
<g>
</g>
<g>
</g>
<g>
</g>
<g>
</g>
<g>
</g>
<g>
</g>
<g>
</g>
<g>
</g>
<g>
</g>
<g>
</g>
<g>
</g>
<g>
</g>
<g>
</g>
<g>
</g>
</svg>
