<?xml version="1.0" encoding="utf-8"?>
<!-- Generator: Adobe Illustrator 16.0.0, SVG Export Plug-In . SVG Version: 6.00 Build 0)  -->
<!DOCTYPE svg PUBLIC "-//W3C//DTD SVG 1.1//EN" "http://www.w3.org/Graphics/SVG/1.1/DTD/svg11.dtd">
<svg version="1.1" xmlns="http://www.w3.org/2000/svg" xmlns:xlink="http://www.w3.org/1999/xlink" x="0px" y="0px" width="16px"
	 height="16px" viewBox="0 0 16 16" enable-background="new 0 0 16 16" xml:space="preserve">
<g id="图层_2" display="none">
</g>
<g id="圆点">
	<circle fill="#8A8A8A" cx="8" cy="8" r="8"/>
	<circle fill="#D2D2D2" cx="8" cy="8" r="6.109"/>
</g>
<g id="雨" display="none">
	<circle display="inline" fill="#706F70" cx="8" cy="8" r="8"/>
	
		<text transform="matrix(1 0 0 1 2.1245 12.209)" display="inline" fill="#FFFFFF" font-family="'MicrosoftYaHeiLight'" font-size="12">雨</text>
</g>
<g id="合" display="none">
	<circle display="inline" fill="#706F70" cx="8" cy="8" r="8"/>
	
		<text id="合_1_" transform="matrix(1 0 0 1 2.1245 12.209)" display="inline" fill="#FFFFFF" font-family="'MicrosoftYaHeiLight'" font-size="12">合</text>
</g>
<g id="污" display="none">
	<circle display="inline" fill="#D2D2D2" cx="8" cy="8" r="8"/>
	
		<text id="合_3_" transform="matrix(1 0 0 1 2.1245 12.209)" display="inline" font-family="'MicrosoftYaHeiLight'" font-size="12">污</text>
</g>
<g id="箭头" display="none">
	<path display="inline" fill="#FFFFFF" d="M8.567,14.788l-0.588,0.815l-0.582-0.815L7.395,0.396h1.17L8.567,14.788z"/>
	<path display="inline" fill="#FFFFFF" d="M7.983,15.604l-5.825-5.82l0.825-0.825L8.81,14.78L7.983,15.604z"/>
	<path display="inline" fill="#FFFFFF" d="M7.152,14.78l5.862-5.858l0.827,0.825l-5.863,5.856L7.152,14.78z"/>
</g>
<g id="井篦子" display="none">
	<path display="inline" fill="#B5B5B6" d="M8.469,11.766c0,0.337-0.273,0.609-0.609,0.609l0,0c-0.336,0-0.609-0.272-0.609-0.609
		V3.484c0-0.336,0.273-0.609,0.609-0.609l0,0c0.336,0,0.609,0.273,0.609,0.609V11.766z"/>
	<path display="inline" fill="#B5B5B6" d="M12.531,11.766c0,0.337-0.273,0.609-0.609,0.609l0,0c-0.336,0-0.609-0.272-0.609-0.609
		V3.484c0-0.336,0.273-0.609,0.609-0.609l0,0c0.336,0,0.609,0.273,0.609,0.609V11.766z"/>
	<path display="inline" fill="#B5B5B6" d="M4.313,11.766c0,0.337-0.273,0.609-0.609,0.609l0,0c-0.336,0-0.609-0.272-0.609-0.609
		V3.484c0-0.336,0.273-0.609,0.609-0.609l0,0c0.336,0,0.609,0.273,0.609,0.609V11.766z"/>
	<path display="inline" fill="#B5B5B6" d="M14.355,7.219c0.53,0,0.957,0.273,0.957,0.609l0,0c0,0.336-0.427,0.609-0.957,0.609H1.362
		c-0.528,0-0.956-0.273-0.956-0.609l0,0c0-0.336,0.428-0.609,0.956-0.609H14.355z"/>
</g>
</svg>
