<?xml version="1.0" encoding="utf-8"?>
<!-- Generator: Adobe Illustrator 16.0.0, SVG Export Plug-In . SVG Version: 6.00 Build 0)  -->
<!DOCTYPE svg PUBLIC "-//W3C//DTD SVG 1.1//EN" "http://www.w3.org/Graphics/SVG/1.1/DTD/svg11.dtd">
<svg version="1.1" id="图层_1" xmlns="http://www.w3.org/2000/svg" xmlns:xlink="http://www.w3.org/1999/xlink" x="0px" y="0px"
	 width="16px" height="16px" viewBox="0 0 16 16" enable-background="new 0 0 16 16" xml:space="preserve">
<rect y="1.88" fill="#5D5D5E" width="16" height="12"/>
<path fill="#B5B5B6" d="M8.609,12.021c0,0.338-0.273,0.609-0.609,0.609l0,0c-0.336,0-0.608-0.271-0.608-0.609V3.737
	c0-0.336,0.272-0.609,0.608-0.609l0,0c0.335,0,0.609,0.273,0.609,0.609V12.021z"/>
<path fill="#B5B5B6" d="M12.672,12.021c0,0.338-0.273,0.609-0.609,0.609l0,0c-0.336,0-0.609-0.271-0.609-0.609V3.737
	c0-0.336,0.273-0.609,0.609-0.609l0,0c0.336,0,0.609,0.273,0.609,0.609V12.021z"/>
<path fill="#B5B5B6" d="M4.454,12.021c0,0.338-0.273,0.609-0.609,0.609l0,0c-0.336,0-0.609-0.271-0.609-0.609V3.737
	c0-0.336,0.273-0.609,0.609-0.609l0,0c0.336,0,0.609,0.273,0.609,0.609V12.021z"/>
<path fill="#B5B5B6" d="M14.496,7.472c0.529,0,0.957,0.273,0.957,0.609l0,0c0,0.336-0.428,0.608-0.957,0.608H1.502
	c-0.528,0-0.956-0.271-0.956-0.608l0,0c0-0.336,0.428-0.609,0.956-0.609H14.496z"/>
</svg>
