<?xml version="1.0" encoding="utf-8"?>
<!-- Generator: Adobe Illustrator 16.0.0, SVG Export Plug-In . SVG Version: 6.00 Build 0)  -->
<!DOCTYPE svg PUBLIC "-//W3C//DTD SVG 1.1//EN" "http://www.w3.org/Graphics/SVG/1.1/DTD/svg11.dtd">
<svg version="1.1" xmlns="http://www.w3.org/2000/svg" xmlns:xlink="http://www.w3.org/1999/xlink" x="0px" y="0px" width="30px"
	 height="30px" viewBox="0 0 30 30" enable-background="new 0 0 30 30" xml:space="preserve">
<g id="图层_4" display="none">
</g>
<g id="亮红">
	<circle fill="#E71E28" cx="14.999" cy="14.999" r="15"/>
	<path fill="#FFFFFF" d="M16.42,12.746c0.466-0.384,0.738-0.957,0.738-1.561c0-1.127-0.913-2.042-2.042-2.042
		c-1.128,0-2.042,0.915-2.042,2.042c0,0.629,0.291,1.186,0.738,1.561L8.634,26.536c-0.166,0.42,0.039,0.895,0.458,1.062
		c0.419,0.166,0.894-0.039,1.061-0.459c0.004-0.008,0.007-0.018,0.011-0.027l1.258-3.351h7.389l1.259,3.351
		c0.16,0.423,0.63,0.637,1.053,0.479c0.423-0.159,0.637-0.631,0.478-1.053L16.42,12.746L16.42,12.746z M16.387,17.305h-2.541
		l1.271-3.383L16.387,17.305z M12.036,22.127l1.197-3.189H17l1.198,3.189H12.036L12.036,22.127z M18.959,13.79
		c-0.264,0.368-0.18,0.878,0.188,1.141c0.369,0.262,0.877,0.177,1.142-0.19c0.009-0.013,0.016-0.026,0.024-0.041
		c0.723-1.073,1.104-2.338,1.102-3.63c0.003-1.294-0.382-2.56-1.102-3.634c-0.244-0.377-0.75-0.485-1.129-0.241
		c-0.38,0.245-0.486,0.751-0.242,1.129c0.005,0.008,0.013,0.015,0.018,0.024c0.539,0.804,0.826,1.751,0.823,2.722
		C19.785,12.037,19.498,12.985,18.959,13.79z M9.447,14.699c0.25,0.375,0.758,0.476,1.133,0.224c0.375-0.25,0.476-0.758,0.225-1.134
		l0,0c-0.54-0.805-0.827-1.753-0.826-2.721c-0.001-0.971,0.286-1.918,0.826-2.723c0.25-0.376,0.15-0.883-0.224-1.134
		c-0.375-0.25-0.882-0.15-1.134,0.223c-0.72,1.075-1.103,2.34-1.101,3.634C8.345,12.361,8.727,13.625,9.447,14.699z M7.424,6.125
		C7.675,5.75,7.574,5.242,7.2,4.991c-0.375-0.25-0.883-0.15-1.134,0.227c-1.181,1.766-1.81,3.843-1.808,5.968
		c-0.003,2.125,0.627,4.203,1.809,5.969c0.25,0.376,0.756,0.477,1.131,0.227c0-0.002,0.002-0.002,0.002-0.002
		c0.375-0.251,0.476-0.759,0.225-1.133v-0.001c-1.003-1.498-1.536-3.259-1.533-5.06C5.889,9.383,6.423,7.622,7.424,6.125z
		 M24.925,7.074c-0.269-0.65-0.601-1.273-0.993-1.857c-0.246-0.38-0.75-0.489-1.13-0.245c-0.379,0.245-0.487,0.749-0.245,1.128
		c0.007,0.008,0.012,0.017,0.019,0.024c1.002,1.497,1.535,3.26,1.529,5.061c0.006,1.801-0.527,3.563-1.529,5.06
		c-0.24,0.384-0.122,0.887,0.261,1.126c0.364,0.226,0.842,0.133,1.096-0.217c1.182-1.766,1.813-3.842,1.809-5.969
		C25.74,9.763,25.466,8.38,24.925,7.074z"/>
</g>
<g id="红" display="none">
	<circle display="inline" fill="#B51D23" cx="14.999" cy="15" r="15"/>
	<path display="inline" fill="#FFFFFF" d="M16.42,12.747c0.466-0.384,0.738-0.957,0.738-1.561c0-1.127-0.913-2.042-2.042-2.042
		c-1.128,0-2.042,0.915-2.042,2.042c0,0.629,0.291,1.186,0.737,1.561L8.634,26.537c-0.166,0.42,0.039,0.895,0.458,1.062
		c0.419,0.166,0.894-0.039,1.061-0.459c0.004-0.008,0.007-0.018,0.011-0.027l1.258-3.351h7.389l1.259,3.351
		c0.16,0.423,0.63,0.637,1.053,0.479c0.423-0.159,0.637-0.631,0.478-1.053L16.42,12.747L16.42,12.747z M16.387,17.306h-2.541
		l1.271-3.383L16.387,17.306z M12.036,22.128l1.197-3.189H17l1.198,3.189H12.036L12.036,22.128z M18.959,13.791
		c-0.264,0.368-0.18,0.878,0.188,1.141c0.369,0.262,0.877,0.177,1.142-0.19c0.009-0.013,0.016-0.026,0.024-0.041
		c0.723-1.073,1.104-2.338,1.102-3.63c0.003-1.294-0.382-2.56-1.102-3.634c-0.244-0.377-0.75-0.485-1.129-0.241
		c-0.38,0.245-0.486,0.751-0.242,1.129c0.005,0.008,0.013,0.015,0.018,0.024c0.539,0.804,0.826,1.751,0.823,2.722
		C19.785,12.038,19.498,12.986,18.959,13.791z M9.447,14.7c0.25,0.375,0.758,0.476,1.133,0.224c0.375-0.25,0.476-0.758,0.225-1.134
		l0,0c-0.54-0.805-0.827-1.753-0.826-2.721c-0.001-0.971,0.286-1.918,0.826-2.723c0.25-0.376,0.15-0.883-0.224-1.134
		c-0.375-0.25-0.882-0.15-1.134,0.223c-0.72,1.075-1.103,2.34-1.101,3.634C8.345,12.362,8.727,13.625,9.447,14.7z M7.424,6.125
		C7.675,5.75,7.574,5.243,7.2,4.992c-0.375-0.25-0.883-0.15-1.134,0.227c-1.181,1.766-1.81,3.843-1.808,5.968
		c-0.003,2.125,0.627,4.203,1.809,5.969c0.25,0.376,0.756,0.477,1.131,0.227c0-0.002,0.002-0.002,0.002-0.002
		c0.375-0.251,0.476-0.759,0.225-1.133v-0.001c-1.003-1.498-1.536-3.259-1.533-5.06C5.889,9.384,6.423,7.623,7.424,6.125z
		 M24.925,7.075c-0.269-0.65-0.601-1.273-0.993-1.857c-0.246-0.38-0.75-0.489-1.13-0.245c-0.379,0.245-0.487,0.749-0.245,1.128
		c0.007,0.008,0.012,0.017,0.019,0.024c1.002,1.497,1.535,3.26,1.529,5.061c0.006,1.801-0.527,3.563-1.529,5.06
		c-0.24,0.384-0.122,0.887,0.261,1.126c0.364,0.226,0.842,0.133,1.096-0.217c1.182-1.766,1.813-3.842,1.809-5.969
		C25.74,9.764,25.466,8.381,24.925,7.075z"/>
</g>
<g id="深红" display="none">
	<circle display="inline" fill="#701419" cx="14.999" cy="15" r="15"/>
	<path display="inline" fill="#FFFFFF" d="M16.42,12.747c0.466-0.384,0.738-0.957,0.738-1.561c0-1.127-0.913-2.042-2.042-2.042
		c-1.128,0-2.042,0.915-2.042,2.042c0,0.629,0.291,1.186,0.737,1.561L8.634,26.537c-0.166,0.42,0.039,0.895,0.458,1.062
		c0.419,0.166,0.894-0.039,1.061-0.459c0.004-0.008,0.007-0.018,0.011-0.027l1.258-3.351h7.389l1.259,3.351
		c0.16,0.423,0.63,0.637,1.053,0.479c0.423-0.159,0.637-0.631,0.478-1.053L16.42,12.747L16.42,12.747z M16.387,17.306h-2.541
		l1.271-3.383L16.387,17.306z M12.036,22.128l1.197-3.189H17l1.198,3.189H12.036L12.036,22.128z M18.959,13.791
		c-0.264,0.368-0.18,0.878,0.188,1.141c0.369,0.262,0.877,0.177,1.142-0.19c0.009-0.013,0.016-0.026,0.024-0.041
		c0.723-1.073,1.104-2.338,1.102-3.63c0.003-1.294-0.382-2.56-1.102-3.634c-0.244-0.377-0.75-0.485-1.129-0.241
		c-0.38,0.245-0.486,0.751-0.242,1.129c0.005,0.008,0.013,0.015,0.018,0.024c0.539,0.804,0.826,1.751,0.823,2.722
		C19.785,12.038,19.498,12.986,18.959,13.791z M9.447,14.7c0.25,0.375,0.758,0.476,1.133,0.224c0.375-0.25,0.476-0.758,0.225-1.134
		l0,0c-0.54-0.805-0.827-1.753-0.826-2.721c-0.001-0.971,0.286-1.918,0.826-2.723c0.25-0.376,0.15-0.883-0.224-1.134
		c-0.375-0.25-0.882-0.15-1.134,0.223c-0.72,1.075-1.103,2.34-1.101,3.634C8.345,12.362,8.727,13.625,9.447,14.7z M7.424,6.125
		C7.675,5.75,7.574,5.243,7.2,4.992c-0.375-0.25-0.883-0.15-1.134,0.227c-1.181,1.766-1.81,3.843-1.808,5.968
		c-0.003,2.125,0.627,4.203,1.809,5.969c0.25,0.376,0.756,0.477,1.131,0.227c0-0.002,0.002-0.002,0.002-0.002
		c0.375-0.251,0.476-0.759,0.225-1.133v-0.001c-1.003-1.498-1.536-3.259-1.533-5.06C5.889,9.384,6.423,7.623,7.424,6.125z
		 M24.925,7.075c-0.269-0.65-0.601-1.273-0.993-1.857c-0.246-0.38-0.75-0.489-1.13-0.245c-0.379,0.245-0.487,0.749-0.245,1.128
		c0.007,0.008,0.012,0.017,0.019,0.024c1.002,1.497,1.535,3.26,1.529,5.061c0.006,1.801-0.527,3.563-1.529,5.06
		c-0.24,0.384-0.122,0.887,0.261,1.126c0.364,0.226,0.842,0.133,1.096-0.217c1.182-1.766,1.813-3.842,1.809-5.969
		C25.74,9.764,25.466,8.381,24.925,7.075z"/>
</g>
<g id="绿" display="none">
	<circle display="inline" fill="#6AB82D" cx="14.999" cy="15" r="15"/>
	<path display="inline" fill="#FFFFFF" d="M16.42,12.747c0.466-0.384,0.738-0.957,0.738-1.561c0-1.127-0.913-2.042-2.042-2.042
		c-1.128,0-2.042,0.915-2.042,2.042c0,0.629,0.291,1.186,0.737,1.561L8.634,26.537c-0.166,0.42,0.039,0.895,0.458,1.062
		c0.419,0.166,0.894-0.039,1.061-0.459c0.004-0.008,0.007-0.018,0.011-0.027l1.258-3.351h7.389l1.259,3.351
		c0.16,0.423,0.63,0.637,1.053,0.479c0.423-0.159,0.637-0.631,0.478-1.053L16.42,12.747L16.42,12.747z M16.387,17.306h-2.541
		l1.271-3.383L16.387,17.306z M12.036,22.128l1.197-3.189H17l1.198,3.189H12.036L12.036,22.128z M18.959,13.791
		c-0.264,0.368-0.18,0.878,0.188,1.141c0.369,0.262,0.877,0.177,1.142-0.19c0.009-0.013,0.016-0.026,0.024-0.041
		c0.723-1.073,1.104-2.338,1.102-3.63c0.003-1.294-0.382-2.56-1.102-3.634c-0.244-0.377-0.75-0.485-1.129-0.241
		c-0.38,0.245-0.486,0.751-0.242,1.129c0.005,0.008,0.013,0.015,0.018,0.024c0.539,0.804,0.826,1.751,0.823,2.722
		C19.785,12.038,19.498,12.986,18.959,13.791z M9.447,14.7c0.25,0.375,0.758,0.476,1.133,0.224c0.375-0.25,0.476-0.758,0.225-1.134
		l0,0c-0.54-0.805-0.827-1.753-0.826-2.721c-0.001-0.971,0.286-1.918,0.826-2.723c0.25-0.376,0.15-0.883-0.224-1.134
		c-0.375-0.25-0.882-0.15-1.134,0.223c-0.72,1.075-1.103,2.34-1.101,3.634C8.345,12.362,8.727,13.625,9.447,14.7z M7.424,6.125
		C7.675,5.75,7.574,5.243,7.2,4.992c-0.375-0.25-0.883-0.15-1.134,0.227c-1.181,1.766-1.81,3.843-1.808,5.968
		c-0.003,2.125,0.627,4.203,1.809,5.969c0.25,0.376,0.756,0.477,1.131,0.227c0-0.002,0.002-0.002,0.002-0.002
		c0.375-0.251,0.476-0.759,0.225-1.133v-0.001c-1.003-1.498-1.536-3.259-1.533-5.06C5.889,9.384,6.423,7.623,7.424,6.125z
		 M24.925,7.075c-0.269-0.65-0.601-1.273-0.993-1.857c-0.246-0.38-0.75-0.489-1.13-0.245c-0.379,0.245-0.487,0.749-0.245,1.128
		c0.007,0.008,0.012,0.017,0.019,0.024c1.002,1.497,1.535,3.26,1.529,5.061c0.006,1.801-0.527,3.563-1.529,5.06
		c-0.24,0.384-0.122,0.887,0.261,1.126c0.364,0.226,0.842,0.133,1.096-0.217c1.182-1.766,1.813-3.842,1.809-5.969
		C25.74,9.764,25.466,8.381,24.925,7.075z"/>
</g>
<g id="黄" display="none">
	<circle display="inline" fill="#F3EB34" cx="14.999" cy="15" r="15"/>
	<path display="inline" fill="#FFFFFF" d="M16.42,12.747c0.466-0.384,0.738-0.957,0.738-1.561c0-1.127-0.913-2.042-2.042-2.042
		c-1.128,0-2.042,0.915-2.042,2.042c0,0.629,0.291,1.186,0.737,1.561L8.634,26.537c-0.166,0.42,0.039,0.895,0.458,1.062
		c0.419,0.166,0.894-0.039,1.061-0.459c0.004-0.008,0.007-0.018,0.011-0.027l1.258-3.351h7.389l1.259,3.351
		c0.16,0.423,0.63,0.637,1.053,0.479c0.423-0.159,0.637-0.631,0.478-1.053L16.42,12.747L16.42,12.747z M16.387,17.306h-2.541
		l1.271-3.383L16.387,17.306z M12.036,22.128l1.197-3.189H17l1.198,3.189H12.036L12.036,22.128z M18.959,13.791
		c-0.264,0.368-0.18,0.878,0.188,1.141c0.369,0.262,0.877,0.177,1.142-0.19c0.009-0.013,0.016-0.026,0.024-0.041
		c0.723-1.073,1.104-2.338,1.102-3.63c0.003-1.294-0.382-2.56-1.102-3.634c-0.244-0.377-0.75-0.485-1.129-0.241
		c-0.38,0.245-0.486,0.751-0.242,1.129c0.005,0.008,0.013,0.015,0.018,0.024c0.539,0.804,0.826,1.751,0.823,2.722
		C19.785,12.038,19.498,12.986,18.959,13.791z M9.447,14.7c0.25,0.375,0.758,0.476,1.133,0.224c0.375-0.25,0.476-0.758,0.225-1.134
		l0,0c-0.54-0.805-0.827-1.753-0.826-2.721c-0.001-0.971,0.286-1.918,0.826-2.723c0.25-0.376,0.15-0.883-0.224-1.134
		c-0.375-0.25-0.882-0.15-1.134,0.223c-0.72,1.075-1.103,2.34-1.101,3.634C8.345,12.362,8.727,13.625,9.447,14.7z M7.424,6.125
		C7.675,5.75,7.574,5.243,7.2,4.992c-0.375-0.25-0.883-0.15-1.134,0.227c-1.181,1.766-1.81,3.843-1.808,5.968
		c-0.003,2.125,0.627,4.203,1.809,5.969c0.25,0.376,0.756,0.477,1.131,0.227c0-0.002,0.002-0.002,0.002-0.002
		c0.375-0.251,0.476-0.759,0.225-1.133v-0.001c-1.003-1.498-1.536-3.259-1.533-5.06C5.889,9.384,6.423,7.623,7.424,6.125z
		 M24.925,7.075c-0.269-0.65-0.601-1.273-0.993-1.857c-0.246-0.38-0.75-0.489-1.13-0.245c-0.379,0.245-0.487,0.749-0.245,1.128
		c0.007,0.008,0.012,0.017,0.019,0.024c1.002,1.497,1.535,3.26,1.529,5.061c0.006,1.801-0.527,3.563-1.529,5.06
		c-0.24,0.384-0.122,0.887,0.261,1.126c0.364,0.226,0.842,0.133,1.096-0.217c1.182-1.766,1.813-3.842,1.809-5.969
		C25.74,9.764,25.466,8.381,24.925,7.075z"/>
</g>
<g id="灰" display="none">
	<circle display="inline" fill="#B2B2B2" cx="14.999" cy="15" r="15"/>
	<path display="inline" fill="#FFFFFF" d="M16.42,12.747c0.466-0.384,0.738-0.957,0.738-1.561c0-1.127-0.913-2.042-2.042-2.042
		c-1.128,0-2.042,0.915-2.042,2.042c0,0.629,0.291,1.186,0.737,1.561L8.634,26.537c-0.166,0.42,0.039,0.895,0.458,1.062
		c0.419,0.166,0.894-0.039,1.061-0.459c0.004-0.008,0.007-0.018,0.011-0.027l1.258-3.351h7.389l1.259,3.351
		c0.16,0.423,0.63,0.637,1.053,0.479c0.423-0.159,0.637-0.631,0.478-1.053L16.42,12.747L16.42,12.747z M16.387,17.306h-2.541
		l1.271-3.383L16.387,17.306z M12.036,22.128l1.197-3.189H17l1.198,3.189H12.036L12.036,22.128z M18.959,13.791
		c-0.264,0.368-0.18,0.878,0.188,1.141c0.369,0.262,0.877,0.177,1.142-0.19c0.009-0.013,0.016-0.026,0.024-0.041
		c0.723-1.073,1.104-2.338,1.102-3.63c0.003-1.294-0.382-2.56-1.102-3.634c-0.244-0.377-0.75-0.485-1.129-0.241
		c-0.38,0.245-0.486,0.751-0.242,1.129c0.005,0.008,0.013,0.015,0.018,0.024c0.539,0.804,0.826,1.751,0.823,2.722
		C19.785,12.038,19.498,12.986,18.959,13.791z M9.447,14.7c0.25,0.375,0.758,0.476,1.133,0.224c0.375-0.25,0.476-0.758,0.225-1.134
		l0,0c-0.54-0.805-0.827-1.753-0.826-2.721c-0.001-0.971,0.286-1.918,0.826-2.723c0.25-0.376,0.15-0.883-0.224-1.134
		c-0.375-0.25-0.882-0.15-1.134,0.223c-0.72,1.075-1.103,2.34-1.101,3.634C8.345,12.362,8.727,13.625,9.447,14.7z M7.424,6.125
		C7.675,5.75,7.574,5.243,7.2,4.992c-0.375-0.25-0.883-0.15-1.134,0.227c-1.181,1.766-1.81,3.843-1.808,5.968
		c-0.003,2.125,0.627,4.203,1.809,5.969c0.25,0.376,0.756,0.477,1.131,0.227c0-0.002,0.002-0.002,0.002-0.002
		c0.375-0.251,0.476-0.759,0.225-1.133v-0.001c-1.003-1.498-1.536-3.259-1.533-5.06C5.889,9.384,6.423,7.623,7.424,6.125z
		 M24.925,7.075c-0.269-0.65-0.601-1.273-0.993-1.857c-0.246-0.38-0.75-0.489-1.13-0.245c-0.379,0.245-0.487,0.749-0.245,1.128
		c0.007,0.008,0.012,0.017,0.019,0.024c1.002,1.497,1.535,3.26,1.529,5.061c0.006,1.801-0.527,3.563-1.529,5.06
		c-0.24,0.384-0.122,0.887,0.261,1.126c0.364,0.226,0.842,0.133,1.096-0.217c1.182-1.766,1.813-3.842,1.809-5.969
		C25.74,9.764,25.466,8.381,24.925,7.075z"/>
</g>
</svg>
