<?xml version="1.0" encoding="utf-8"?>
<!-- Generator: Adobe Illustrator 16.0.0, SVG Export Plug-In . SVG Version: 6.00 Build 0)  -->
<!DOCTYPE svg PUBLIC "-//W3C//DTD SVG 1.1//EN" "http://www.w3.org/Graphics/SVG/1.1/DTD/svg11.dtd">
<svg version="1.1" id="图层_1" xmlns="http://www.w3.org/2000/svg" xmlns:xlink="http://www.w3.org/1999/xlink" x="0px" y="0px"
	 width="49px" height="49px" viewBox="0 0 49 49" enable-background="new 0 0 49 49" xml:space="preserve">
<circle fill="#2F70B0" cx="24.5" cy="24.5" r="24.416"/>
<path fill="#FFFFFF" d="M37.356,26.558H18.843c-1.131,0-2.057-0.926-2.057-2.057c0-1.132,0.926-2.058,2.057-2.058h18.514
	c1.133,0,2.058,0.926,2.058,2.058C39.414,25.632,38.489,26.558,37.356,26.558z M37.356,16.015H18.843
	c-1.131,0-2.057-0.926-2.057-2.057s0.926-2.058,2.057-2.058h18.514c1.133,0,2.058,0.926,2.058,2.058S38.489,16.015,37.356,16.015z
	 M11.643,37.101c-1.131,0-2.057-0.926-2.057-2.057c0-1.132,0.926-2.058,2.057-2.058s2.057,0.926,2.057,2.058
	C13.7,36.175,12.774,37.101,11.643,37.101z M11.643,26.558c-1.131,0-2.057-0.926-2.057-2.057c0-1.132,0.926-2.058,2.057-2.058
	s2.057,0.926,2.057,2.058C13.7,25.632,12.774,26.558,11.643,26.558z M11.643,16.015c-1.131,0-2.057-0.926-2.057-2.057
	s0.926-2.058,2.057-2.058s2.057,0.926,2.057,2.058S12.774,16.015,11.643,16.015z M18.843,32.986h18.514
	c1.133,0,2.058,0.926,2.058,2.058c0,1.131-0.925,2.057-2.058,2.057H18.843c-1.131,0-2.057-0.926-2.057-2.057
	C16.786,33.912,17.712,32.986,18.843,32.986z"/>
</svg>
